<svg width="18" height="18" viewBox="0 0 18 18" fill="none" xmlns="http://www.w3.org/2000/svg">
<path d="M10 18C9.71667 18 9.47934 17.904 9.288 17.712C9.09667 17.52 9.00067 17.2827 9 17C8.99934 16.7173 9.09534 16.48 9.288 16.288C9.48067 16.096 9.718 16 10 16H16V2H10C9.71667 2 9.47934 1.904 9.288 1.712C9.09667 1.52 9.00067 1.28267 9 1C8.99934 0.717333 9.09534 0.48 9.288 0.288C9.48067 0.0960001 9.718 0 10 0H16C16.55 0 17.021 0.196 17.413 0.588C17.805 0.98 18.0007 1.45067 18 2V16C18 16.55 17.8043 17.021 17.413 17.413C17.0217 17.805 16.5507 18.0007 16 18H10ZM8.175 10H1C0.71667 10 0.479337 9.904 0.288004 9.712C0.0966702 9.52 0.000670115 9.28267 3.44827e-06 9C-0.000663218 8.71733 0.0953369 8.48 0.288004 8.288C0.48067 8.096 0.718003 8 1 8H8.175L6.3 6.125C6.11667 5.94167 6.025 5.71667 6.025 5.45C6.025 5.18333 6.11667 4.95 6.3 4.75C6.48334 4.55 6.71667 4.44567 7 4.437C7.28334 4.42833 7.525 4.52433 7.725 4.725L11.3 8.3C11.5 8.5 11.6 8.73333 11.6 9C11.6 9.26667 11.5 9.5 11.3 9.7L7.725 13.275C7.525 13.475 7.28767 13.571 7.013 13.563C6.73834 13.555 6.50067 13.4507 6.3 13.25C6.11667 13.05 6.02934 12.8127 6.038 12.538C6.04667 12.2633 6.14234 12.034 6.325 11.85L8.175 10Z" fill="black"/>
</svg>
