<svg width="169" height="48" viewBox="0 0 169 48" fill="none" xmlns="http://www.w3.org/2000/svg">
<path d="M10.1511 44C7.19782 5.97372 31.5947 0 33.3924 0V10.5985C21.9387 13.9387 21.6433 34.2579 22.9274 44H10.1511Z" fill="#2C6777"/>
<path d="M26.8366 0H0V10.3416H14.9591C16.9109 6.8473 23.1128 1.60584 26.8366 0Z" fill="#52AB99"/>
<path d="M46.8093 19C46.6227 19 46.47 18.9406 46.3513 18.8219C46.2326 18.7032 46.1732 18.5505 46.1732 18.364V1.82707C46.1732 1.6405 46.2326 1.48785 46.3513 1.36912C46.47 1.2504 46.6227 1.19103 46.8093 1.19103H50.0149C50.2014 1.19103 50.3541 1.2504 50.4728 1.36912C50.5916 1.48785 50.6509 1.6405 50.6509 1.82707V7.47505L55.3576 1.67442C55.4254 1.57265 55.5357 1.47089 55.6883 1.36912C55.8579 1.2504 56.0784 1.19103 56.3498 1.19103H60.0133C60.166 1.19103 60.2932 1.2504 60.395 1.36912C60.4967 1.47089 60.5476 1.58961 60.5476 1.7253C60.5476 1.84403 60.5137 1.94579 60.4458 2.0306L54.3654 9.7139L60.9292 18.1604C60.9971 18.2283 61.031 18.33 61.031 18.4657C61.031 18.6014 60.9716 18.7286 60.8529 18.8474C60.7511 18.9491 60.6324 19 60.4967 19H56.706C56.4007 19 56.1632 18.9322 55.9936 18.7965C55.841 18.6608 55.7392 18.559 55.6883 18.4912L50.6509 12.2072V18.364C50.6509 18.5505 50.5916 18.7032 50.4728 18.8219C50.3541 18.9406 50.2014 19 50.0149 19H46.8093ZM68.0989 19.2544C66.0975 19.2544 64.5032 18.7117 63.316 17.6262C62.1287 16.5407 61.5096 14.9294 61.4587 12.7923C61.4587 12.6736 61.4587 12.5209 61.4587 12.3344C61.4587 12.1478 61.4587 12.0036 61.4587 11.9019C61.5096 10.5619 61.8064 9.41708 62.3492 8.46727C62.9089 7.5005 63.6721 6.77118 64.6389 6.27931C65.6226 5.77048 66.7675 5.51607 68.0735 5.51607C69.5661 5.51607 70.7957 5.81288 71.7625 6.40652C72.7462 7.00015 73.484 7.80579 73.9759 8.82345C74.4678 9.8411 74.7137 11.0029 74.7137 12.3089V12.9195C74.7137 13.1061 74.6458 13.2587 74.5102 13.3775C74.3914 13.4962 74.2473 13.5555 74.0777 13.5555H65.9364C65.9364 13.5725 65.9364 13.5979 65.9364 13.6319C65.9364 13.6658 65.9364 13.6997 65.9364 13.7336C65.9534 14.2255 66.0382 14.675 66.1908 15.082C66.3435 15.4891 66.5809 15.8113 66.9032 16.0488C67.2254 16.2863 67.6155 16.405 68.0735 16.405C68.4127 16.405 68.6926 16.3541 68.9131 16.2523C69.1505 16.1336 69.3456 16.0064 69.4982 15.8707C69.6509 15.7181 69.7696 15.5909 69.8544 15.4891C70.007 15.3195 70.1258 15.2177 70.2106 15.1838C70.3123 15.1329 70.465 15.1075 70.6685 15.1075H73.8232C73.9929 15.1075 74.1285 15.1584 74.2303 15.2601C74.349 15.3449 74.3999 15.4721 74.383 15.6417C74.366 15.9301 74.2218 16.2778 73.9505 16.6848C73.6791 17.0919 73.2805 17.499 72.7547 17.906C72.2459 18.2961 71.6014 18.6184 70.8212 18.8728C70.041 19.1272 69.1335 19.2544 68.0989 19.2544ZM65.9364 11.0368H70.236V10.986C70.236 10.4432 70.1512 9.96831 69.9816 9.56125C69.8289 9.15419 69.583 8.84041 69.2438 8.61992C68.9215 8.39942 68.5314 8.28918 68.0735 8.28918C67.6155 8.28918 67.2254 8.39942 66.9032 8.61992C66.5979 8.84041 66.3604 9.15419 66.1908 9.56125C66.0212 9.96831 65.9364 10.4432 65.9364 10.986V11.0368ZM77.7349 19C77.5483 19 77.3956 18.9406 77.2769 18.8219C77.1582 18.7032 77.0988 18.5505 77.0988 18.364V1.57265C77.0988 1.38608 77.1582 1.23343 77.2769 1.11471C77.3956 0.995982 77.5483 0.936618 77.7349 0.936618H80.7369C80.9235 0.936618 81.0762 0.995982 81.1949 1.11471C81.3136 1.23343 81.373 1.38608 81.373 1.57265V18.364C81.373 18.5505 81.3136 18.7032 81.1949 18.8219C81.0762 18.9406 80.9235 19 80.7369 19H77.7349ZM90.637 19.2544C89.2123 19.2544 88.0081 19.0254 87.0243 18.5675C86.0576 18.1096 85.3113 17.4566 84.7855 16.6085C84.2767 15.7435 83.9883 14.7174 83.9205 13.5301C83.9035 13.1909 83.895 12.8093 83.895 12.3852C83.895 11.9443 83.9035 11.5626 83.9205 11.2404C83.9883 10.0362 84.2936 9.01002 84.8364 8.16197C85.3791 7.31393 86.1339 6.66093 87.1007 6.20298C88.0844 5.74504 89.2632 5.51607 90.637 5.51607C92.0278 5.51607 93.2066 5.74504 94.1734 6.20298C95.1571 6.66093 95.9203 7.31393 96.4631 8.16197C97.0058 9.01002 97.3111 10.0362 97.379 11.2404C97.3959 11.5626 97.4044 11.9443 97.4044 12.3852C97.4044 12.8093 97.3959 13.1909 97.379 13.5301C97.3111 14.7174 97.0143 15.7435 96.4885 16.6085C95.9797 17.4566 95.2334 18.1096 94.2497 18.5675C93.2829 19.0254 92.0787 19.2544 90.637 19.2544ZM90.637 16.1506C91.4003 16.1506 91.9515 15.9216 92.2907 15.4636C92.6469 15.0057 92.8504 14.3188 92.9013 13.4029C92.9183 13.1485 92.9267 12.8093 92.9267 12.3852C92.9267 11.9612 92.9183 11.622 92.9013 11.3676C92.8504 10.4687 92.6469 9.79022 92.2907 9.33227C91.9515 8.85737 91.4003 8.61992 90.637 8.61992C89.8907 8.61992 89.3395 8.85737 88.9833 9.33227C88.6271 9.79022 88.4321 10.4687 88.3982 11.3676C88.3812 11.622 88.3727 11.9612 88.3727 12.3852C88.3727 12.8093 88.3812 13.1485 88.3982 13.4029C88.4321 14.3188 88.6271 15.0057 88.9833 15.4636C89.3395 15.9216 89.8907 16.1506 90.637 16.1506ZM100.543 19C100.356 19 100.203 18.9406 100.085 18.8219C99.966 18.7032 99.9066 18.5505 99.9066 18.364V6.40652C99.9066 6.21995 99.966 6.0673 100.085 5.94857C100.203 5.82984 100.356 5.77048 100.543 5.77048H103.316C103.502 5.77048 103.655 5.82984 103.774 5.94857C103.892 6.0673 103.952 6.21995 103.952 6.40652V7.27152C104.291 6.81358 104.766 6.415 105.377 6.07578C105.987 5.7196 106.708 5.53303 107.539 5.51607C109.49 5.48215 110.829 6.21995 111.559 7.72947C111.949 7.08495 112.509 6.55916 113.238 6.1521C113.967 5.72808 114.764 5.51607 115.629 5.51607C116.511 5.51607 117.3 5.7196 117.995 6.12666C118.708 6.51676 119.276 7.12736 119.7 7.95844C120.124 8.77256 120.336 9.83262 120.336 11.1386V18.364C120.336 18.5505 120.268 18.7032 120.133 18.8219C120.014 18.9406 119.87 19 119.7 19H116.749C116.562 19 116.401 18.9406 116.265 18.8219C116.147 18.7032 116.087 18.5505 116.087 18.364V11.3167C116.087 10.7231 116.003 10.2566 115.833 9.91743C115.663 9.56125 115.434 9.30683 115.146 9.15418C114.858 9.00154 114.527 8.92521 114.154 8.92521C113.848 8.92521 113.543 9.00154 113.238 9.15418C112.95 9.30683 112.712 9.56125 112.526 9.91743C112.356 10.2566 112.271 10.7231 112.271 11.3167V18.364C112.271 18.5505 112.212 18.7032 112.093 18.8219C111.974 18.9406 111.822 19 111.635 19H108.684C108.497 19 108.345 18.9406 108.226 18.8219C108.107 18.7032 108.048 18.5505 108.048 18.364V11.3167C108.048 10.7231 107.955 10.2566 107.768 9.91743C107.581 9.56125 107.344 9.30683 107.056 9.15418C106.767 9.00154 106.445 8.92521 106.089 8.92521C105.784 8.92521 105.478 9.00154 105.173 9.15418C104.885 9.30683 104.647 9.56125 104.461 9.91743C104.291 10.2566 104.206 10.7146 104.206 11.2913V18.364C104.206 18.5505 104.138 18.7032 104.003 18.8219C103.884 18.9406 103.731 19 103.545 19H100.543ZM123.823 23.8339C123.636 23.8339 123.483 23.7745 123.365 23.6558C123.246 23.537 123.186 23.3844 123.186 23.1978V6.40652C123.186 6.21995 123.246 6.0673 123.365 5.94857C123.483 5.82984 123.636 5.77048 123.823 5.77048H126.697C126.867 5.77048 127.011 5.82984 127.13 5.94857C127.266 6.0673 127.333 6.21995 127.333 6.40652V7.34785C127.724 6.82206 128.241 6.38955 128.885 6.05034C129.53 5.69416 130.327 5.51607 131.277 5.51607C132.125 5.51607 132.871 5.65175 133.516 5.92313C134.16 6.17754 134.711 6.55916 135.169 7.06799C135.627 7.57682 135.983 8.19589 136.238 8.92521C136.509 9.65453 136.662 10.4941 136.696 11.4439C136.713 11.7831 136.721 12.0969 136.721 12.3852C136.721 12.6736 136.713 12.9874 136.696 13.3266C136.662 14.2425 136.518 15.0651 136.263 15.7944C136.009 16.5237 135.653 17.1428 135.195 17.6516C134.737 18.1604 134.177 18.559 133.516 18.8474C132.871 19.1187 132.125 19.2544 131.277 19.2544C130.446 19.2544 129.716 19.1102 129.089 18.8219C128.478 18.5166 127.969 18.0926 127.562 17.5498V23.1978C127.562 23.3844 127.503 23.537 127.384 23.6558C127.266 23.7745 127.113 23.8339 126.926 23.8339H123.823ZM129.903 15.8453C130.48 15.8453 130.929 15.7265 131.251 15.4891C131.574 15.2516 131.803 14.9294 131.938 14.5223C132.091 14.1153 132.184 13.6658 132.218 13.1739C132.252 12.6481 132.252 12.1223 132.218 11.5966C132.184 11.1047 132.091 10.6552 131.938 10.2482C131.803 9.8411 131.574 9.51884 131.251 9.28139C130.929 9.04394 130.48 8.92521 129.903 8.92521C129.343 8.92521 128.894 9.05242 128.555 9.30683C128.215 9.54429 127.969 9.85806 127.817 10.2482C127.664 10.6383 127.579 11.0623 127.562 11.5202C127.545 11.8425 127.537 12.1563 127.537 12.4616C127.537 12.7669 127.545 13.0891 127.562 13.4283C127.579 13.8524 127.673 14.2509 127.842 14.6241C128.012 14.9803 128.266 15.2771 128.605 15.5145C128.945 15.735 129.377 15.8453 129.903 15.8453ZM145.495 19.2544C144.07 19.2544 142.866 19.0254 141.882 18.5675C140.916 18.1096 140.169 17.4566 139.643 16.6085C139.135 15.7435 138.846 14.7174 138.778 13.5301C138.762 13.1909 138.753 12.8093 138.753 12.3852C138.753 11.9443 138.762 11.5626 138.778 11.2404C138.846 10.0362 139.152 9.01002 139.694 8.16197C140.237 7.31393 140.992 6.66093 141.959 6.20298C142.942 5.74504 144.121 5.51607 145.495 5.51607C146.886 5.51607 148.065 5.74504 149.031 6.20298C150.015 6.66093 150.778 7.31393 151.321 8.16197C151.864 9.01002 152.169 10.0362 152.237 11.2404C152.254 11.5626 152.262 11.9443 152.262 12.3852C152.262 12.8093 152.254 13.1909 152.237 13.5301C152.169 14.7174 151.872 15.7435 151.347 16.6085C150.838 17.4566 150.091 18.1096 149.108 18.5675C148.141 19.0254 146.937 19.2544 145.495 19.2544ZM145.495 16.1506C146.258 16.1506 146.809 15.9216 147.149 15.4636C147.505 15.0057 147.708 14.3188 147.759 13.4029C147.776 13.1485 147.785 12.8093 147.785 12.3852C147.785 11.9612 147.776 11.622 147.759 11.3676C147.708 10.4687 147.505 9.79022 147.149 9.33227C146.809 8.85737 146.258 8.61992 145.495 8.61992C144.749 8.61992 144.197 8.85737 143.841 9.33227C143.485 9.79022 143.29 10.4687 143.256 11.3676C143.239 11.622 143.231 11.9612 143.231 12.3852C143.231 12.8093 143.239 13.1485 143.256 13.4029C143.29 14.3188 143.485 15.0057 143.841 15.4636C144.197 15.9216 144.749 16.1506 145.495 16.1506ZM155.401 19C155.214 19 155.061 18.9406 154.943 18.8219C154.824 18.7032 154.765 18.5505 154.765 18.364V1.57265C154.765 1.38608 154.824 1.23343 154.943 1.11471C155.061 0.995982 155.214 0.936618 155.401 0.936618H158.352C158.521 0.936618 158.666 0.995982 158.784 1.11471C158.92 1.23343 158.988 1.38608 158.988 1.57265V10.0955L162.524 6.20298C162.626 6.08426 162.736 5.98249 162.855 5.89769C162.974 5.81288 163.143 5.77048 163.364 5.77048H166.773C166.926 5.77048 167.053 5.82984 167.155 5.94857C167.273 6.05034 167.333 6.17754 167.333 6.33019C167.333 6.39804 167.316 6.47436 167.282 6.55916C167.248 6.64397 167.197 6.71181 167.129 6.76269L162.55 11.6983L167.765 18.0332C167.901 18.1689 167.969 18.3046 167.969 18.4403C167.969 18.5929 167.909 18.7286 167.791 18.8474C167.689 18.9491 167.553 19 167.384 19H163.898C163.644 19 163.457 18.9576 163.338 18.8728C163.22 18.771 163.109 18.6693 163.008 18.5675L158.988 13.7336V18.364C158.988 18.5505 158.92 18.7032 158.784 18.8219C158.666 18.9406 158.521 19 158.352 19H155.401ZM51.2361 43C51.0665 43 50.9308 42.9491 50.829 42.8474C50.7272 42.7456 50.6764 42.6099 50.6764 42.4403V26.7175H45.639C45.4694 26.7175 45.3337 26.6666 45.2319 26.5649C45.1301 26.4631 45.0793 26.3274 45.0793 26.1578V25.7762C45.0793 25.5896 45.1301 25.4454 45.2319 25.3437C45.3337 25.2419 45.4694 25.191 45.639 25.191H57.2911C57.4777 25.191 57.6219 25.2419 57.7236 25.3437C57.8254 25.4454 57.8763 25.5896 57.8763 25.7762V26.1578C57.8763 26.3274 57.8254 26.4631 57.7236 26.5649C57.6219 26.6666 57.4777 26.7175 57.2911 26.7175H52.2792V42.4403C52.2792 42.6099 52.2283 42.7456 52.1265 42.8474C52.0247 42.9491 51.8806 43 51.694 43H51.2361ZM63.2156 43.2544C62.0622 43.2544 61.1039 43.0085 60.3407 42.5166C59.5944 42.0078 59.0347 41.3209 58.6616 40.4559C58.3054 39.5909 58.1273 38.6241 58.1273 37.5555V30.3302C58.1273 30.1606 58.1782 30.0249 58.2799 29.9231C58.3817 29.8214 58.5174 29.7705 58.687 29.7705H59.1195C59.2891 29.7705 59.4248 29.8214 59.5266 29.9231C59.6283 30.0249 59.6792 30.1606 59.6792 30.3302V37.4283C59.6792 40.3287 60.9428 41.7788 63.47 41.7788C64.6742 41.7788 65.641 41.3972 66.3703 40.634C67.0996 39.8537 67.4643 38.7852 67.4643 37.4283V30.3302C67.4643 30.1606 67.5152 30.0249 67.6169 29.9231C67.7187 29.8214 67.8544 29.7705 68.024 29.7705H68.4565C68.6261 29.7705 68.7618 29.8214 68.8636 29.9231C68.9653 30.0249 69.0162 30.1606 69.0162 30.3302V42.4403C69.0162 42.6099 68.9653 42.7456 68.8636 42.8474C68.7618 42.9491 68.6261 43 68.4565 43H68.024C67.8544 43 67.7187 42.9491 67.6169 42.8474C67.5152 42.7456 67.4643 42.6099 67.4643 42.4403V41.2445C67.0063 41.8382 66.4551 42.3216 65.8106 42.6947C65.183 43.0678 64.318 43.2544 63.2156 43.2544ZM70.9742 47.8339C70.8046 47.8339 70.6689 47.783 70.5671 47.6812C70.4654 47.5794 70.4145 47.4438 70.4145 47.2742V46.918C70.4145 46.7484 70.4654 46.6127 70.5671 46.5109C70.6689 46.4091 70.8046 46.3583 70.9742 46.3583H71.076C71.7714 46.3583 72.2802 46.2311 72.6025 45.9766C72.9247 45.7222 73.1282 45.383 73.213 44.959C73.3148 44.535 73.3657 44.0685 73.3657 43.5597V30.3302C73.3657 30.1606 73.4166 30.0249 73.5183 29.9231C73.6201 29.8214 73.7558 29.7705 73.9254 29.7705H74.3579C74.5275 29.7705 74.6632 29.8214 74.765 29.9231C74.8667 30.0249 74.9176 30.1606 74.9176 30.3302V43.5597C74.9176 44.3569 74.8074 45.0777 74.5869 45.7222C74.3833 46.3667 74.0017 46.8756 73.442 47.2487C72.8993 47.6388 72.1106 47.8339 71.076 47.8339H70.9742ZM73.6455 27.0483C73.4759 27.0483 73.3403 26.9974 73.2385 26.8956C73.1367 26.7938 73.0858 26.6582 73.0858 26.4885V25.5218C73.0858 25.3522 73.1367 25.2165 73.2385 25.1147C73.3403 24.996 73.4759 24.9366 73.6455 24.9366H74.6123C74.7819 24.9366 74.9176 24.996 75.0194 25.1147C75.1381 25.2165 75.1975 25.3522 75.1975 25.5218V26.4885C75.1975 26.6582 75.1381 26.7938 75.0194 26.8956C74.9176 26.9974 74.7819 27.0483 74.6123 27.0483H73.6455ZM84.0358 43.2544C82.8824 43.2544 81.9241 43.0085 81.1609 42.5166C80.4146 42.0078 79.8549 41.3209 79.4818 40.4559C79.1256 39.5909 78.9475 38.6241 78.9475 37.5555V30.3302C78.9475 30.1606 78.9984 30.0249 79.1001 29.9231C79.2019 29.8214 79.3376 29.7705 79.5072 29.7705H79.9397C80.1093 29.7705 80.245 29.8214 80.3468 29.9231C80.4485 30.0249 80.4994 30.1606 80.4994 30.3302V37.4283C80.4994 40.3287 81.763 41.7788 84.2902 41.7788C85.4944 41.7788 86.4612 41.3972 87.1905 40.634C87.9198 39.8537 88.2845 38.7852 88.2845 37.4283V30.3302C88.2845 30.1606 88.3354 30.0249 88.4371 29.9231C88.5389 29.8214 88.6746 29.7705 88.8442 29.7705H89.2767C89.4463 29.7705 89.582 29.8214 89.6838 29.9231C89.7855 30.0249 89.8364 30.1606 89.8364 30.3302V42.4403C89.8364 42.6099 89.7855 42.7456 89.6838 42.8474C89.582 42.9491 89.4463 43 89.2767 43H88.8442C88.6746 43 88.5389 42.9491 88.4371 42.8474C88.3354 42.7456 88.2845 42.6099 88.2845 42.4403V41.2445C87.8265 41.8382 87.2753 42.3216 86.6308 42.6947C86.0032 43.0678 85.1382 43.2544 84.0358 43.2544ZM94.5421 43C94.3725 43 94.2368 42.9491 94.135 42.8474C94.0332 42.7456 93.9824 42.6099 93.9824 42.4403V25.4963C93.9824 25.3267 94.0332 25.191 94.135 25.0893C94.2368 24.9875 94.3725 24.9366 94.5421 24.9366H94.9746C95.1442 24.9366 95.2799 24.9875 95.3816 25.0893C95.4834 25.191 95.5343 25.3267 95.5343 25.4963V31.5259C95.9922 30.9323 96.5435 30.4489 97.188 30.0758C97.8494 29.7026 98.7229 29.5161 99.8084 29.5161C100.962 29.5161 101.92 29.7705 102.683 30.2793C103.464 30.7712 104.04 31.4496 104.413 32.3146C104.803 33.1627 104.998 34.1294 104.998 35.2149V42.4403C104.998 42.6099 104.948 42.7456 104.846 42.8474C104.744 42.9491 104.608 43 104.439 43H104.006C103.837 43 103.701 42.9491 103.599 42.8474C103.497 42.7456 103.447 42.6099 103.447 42.4403V35.3421C103.447 33.9853 103.116 32.9252 102.454 32.162C101.793 31.3818 100.826 30.9917 99.554 30.9917C98.3498 30.9917 97.3745 31.3818 96.6283 32.162C95.8989 32.9252 95.5343 33.9853 95.5343 35.3421V42.4403C95.5343 42.6099 95.4834 42.7456 95.3816 42.8474C95.2799 42.9491 95.1442 43 94.9746 43H94.5421Z" fill="#2C6777"/>
</svg>
